<?xml version="1.0" encoding="utf-8"?>
<!-- Generator: Adobe Illustrator 27.3.1, SVG Export Plug-In . SVG Version: 6.00 Build 0)  -->
<svg version="1.1" id="Livello_1" xmlns="http://www.w3.org/2000/svg" xmlns:xlink="http://www.w3.org/1999/xlink" x="0px" y="0px"
	 viewBox="0 0 165.3 141.7" style="enable-background:new 0 0 165.3 141.7;" xml:space="preserve">
<style type="text/css">
	.st0{fill:#647FB7;}
	.st1{fill:#505C85;}
	.st2{fill:#FFE945;}
</style>
<g>
	<g>
		<path class="st0" d="M148.8,71c0,35-28.4,63.4-63.4,63.4S21.9,106.1,21.9,71S50.3,7.6,85.4,7.6S148.8,36,148.8,71L148.8,71z"/>
		<path class="st1" d="M102.5,15.1c8.3,10.2,13.3,23.2,13.2,37.3c-0.1,45.2-26.5,59.3-59.3,59.3c-5.8,0-11.4-0.8-16.7-2.4
			c10.9,13.4,27.5,22,46,22c32.7,0,59.3-26.5,59.3-59.3C145.1,45.1,127.1,22.3,102.5,15.1z"/>
		<ellipse class="st1" cx="50.1" cy="52.3" rx="8.2" ry="4.5"/>
		<ellipse class="st1" cx="78.1" cy="28" rx="8.6" ry="4.1"/>
		<ellipse class="st1" cx="88.2" cy="55.5" rx="10.5" ry="5"/>
		<ellipse class="st1" cx="105" cy="90" rx="16.4" ry="7.8"/>
		<path class="st1" d="M50.8,80.1c0,2-3.3,3.6-7.5,3.6s-7.5-1.6-7.5-3.6s3.3-3.6,7.5-3.6S50.8,78.1,50.8,80.1z"/>
	</g>
	<polygon class="st2" points="149,11.6 160.6,15.1 149,18.7 145.5,30.2 141.9,18.7 130.4,15.1 141.9,11.6 145.5,0 	"/>
	<polygon class="st2" points="12.6,121.3 16.5,108.6 20.5,121.3 33.1,125.2 20.5,129.1 16.5,141.7 12.6,129.1 0,125.2 	"/>
</g>
</svg>
