<?xml version="1.0" encoding="UTF-8"?>
<svg id="Livello_1" data-name="Livello 1" xmlns="http://www.w3.org/2000/svg" viewBox="0 0 744.74 118.61">
  <defs>
    <style>
      .cls-1 {
        fill: #ffe945;
      }

      .cls-2 {
        fill: #647fb7;
      }

      .cls-3 {
        fill: #505c85;
      }
    </style>
  </defs>
  <g>
    <g>
      <path class="cls-2" d="m124.51,59.46c0,29.31-23.76,53.07-53.07,53.07s-53.07-23.76-53.07-53.07S42.13,6.38,71.44,6.38s53.07,23.76,53.07,53.07Z"/>
      <path class="cls-3" d="m85.81,12.67c6.92,8.53,11.1,19.39,11.07,31.22-.09,37.81-22.21,49.6-49.6,49.6-4.86,0-9.55-.71-13.98-2.01,9.09,11.21,22.97,18.38,38.54,18.38,27.4,0,49.6-22.21,49.6-49.6,0-22.54-15.04-41.55-35.62-47.59Z"/>
      <ellipse class="cls-3" cx="41.9" cy="43.74" rx="6.88" ry="3.75"/>
      <ellipse class="cls-3" cx="65.35" cy="23.41" rx="7.19" ry="3.44"/>
      <ellipse class="cls-3" cx="73.79" cy="46.43" rx="8.76" ry="4.19"/>
      <ellipse class="cls-3" cx="87.86" cy="75.32" rx="13.73" ry="6.57"/>
      <path class="cls-3" d="m42.52,67.01c0,1.65-2.8,2.99-6.25,2.99s-6.25-1.34-6.25-2.99,2.8-2.99,6.25-2.99,6.25,1.34,6.25,2.99Z"/>
    </g>
    <polygon class="cls-1" points="124.72 9.67 134.4 12.66 124.72 15.64 121.74 25.31 118.76 15.64 109.08 12.66 118.76 9.67 121.74 0 124.72 9.67"/>
    <polygon class="cls-1" points="10.59 101.49 13.85 90.9 17.12 101.49 27.71 104.76 17.12 108.02 13.85 118.61 10.59 108.02 0 104.76 10.59 101.49"/>
  </g>
  <g>
    <path class="cls-1" d="m158.09,35.68l12.14,26.62-.46-26.43,13.03.29-2.88,48.43-10.59,1.09-14.27-37.14-.1,37.24-7.93.19,1.04-37.72h-2.42l-.15-12.28,12.57-.29Z"/>
    <path class="cls-1" d="m215.05,34.83l-.63,6.43-22.1-.8v6.55h14.31l1.09,7.62-11.24.1.7,15.06,15.93.15.85,13.56-27.18,1.09-1.38-49.57,29.64-.19Z"/>
    <path class="cls-1" d="m227.97,37.81l-2.68,36.2,18.18-4.11.48,14.27-25.24.44-1.26-48.92,10.52,2.13Z"/>
    <path class="cls-1" d="m274.63,35.68l12.14,26.62-.46-26.43,13.03.29-2.88,48.43-10.59,1.09-14.27-37.14-.1,37.24-7.93.19,1.04-37.72h-2.42l-.15-12.28,12.57-.29Z"/>
    <path class="cls-1" d="m303.24,58.43c.1-2.56.27-5.05.48-7.47.51-5.05,1.09-7.91,1.74-8.56.7-.7,2.73-1.28,6.09-1.79,1.64-.27,3.34-.44,5.05-.53s3.48-.15,5.34-.15c5.01,0,8.54.44,10.54,1.33,1.06.46,2.08,3.53,3.07,9.16.99,5.78,1.47,11.61,1.5,17.48,0,7.91-.99,13.2-2.97,15.89-.36.46-2.32.92-5.85,1.35-3.65.48-7.25.73-10.86.73h-.34c-6.55,0-10.54-.8-11.97-2.37-1.33-1.43-1.98-7.08-1.98-17,0-2.8.05-5.49.15-8.08Zm8.17,19.88c.7.89,3.24,1.33,7.62,1.33,3.02,0,4.76-.31,5.2-.94.36-.51.56-3.17.56-8,0-1.98-.02-3.89-.1-5.75s-.17-3.68-.31-5.44c-.29-3.97-.65-6.19-1.09-6.65-.97-1.09-2.97-1.62-6.04-1.62h-.15c-1.91,0-3.12.29-3.6.89-.51.56-1.04,3.68-1.6,9.31-.27,2.71-.46,5.17-.58,7.42-.15,2.25-.22,4.28-.22,6.09,0,1.98.1,3.1.31,3.36Z"/>
    <path class="cls-1" d="m352.54,36.16l6.29,26.6h1.23l6.04-28.92,10.91.48,1.47,50.27-11.87.15,2.13-21.93-2.03-1.69-6.43,23.48h-2.93l-7.33-36.15-1.93.48,1.84,34.87-11.9.15,1.6-35.25-1.6-.39-.05-11.85,14.56-.29Z"/>
    <path class="cls-1" d="m410.74,34.83l-.63,6.43-22.1-.8v6.55h14.31l1.09,7.62-11.24.1.7,15.06,15.93.15.85,13.56-27.18,1.09-1.38-49.57,29.64-.19Z"/>
    <path class="cls-1" d="m435.62,36.06c1.89,0,3.84.1,5.9.27s4.21.46,6.48.82c2.1.36,4.11.75,5.97,1.16s3.6.89,5.22,1.43c.36,2.78.73,5.51,1.09,8.2.34,2.71.68,5.44.99,8.17.36,2.88.63,5.46.77,7.76.15,2.32.22,4.38.22,6.17v.31c0,3.12-.24,5.9-.73,8.29-1.62.75-3.89,1.47-6.87,2.13s-6.67,1.23-11.07,1.74c-2.25.27-4.47.48-6.67.7s-4.45.46-6.7.73l-.58-47.44c1.67-.29,3.68-.44,5.97-.44Zm6.77,40.26c.36,0,.85.02,1.45.05.51.02.97.05,1.38.07s.77.02,1.11.02c3,0,5.15-.34,6.48-1.04.63-1.02,1.28-5.08,1.98-12.19.31-3.24.53-6.02.7-8.37.15-1.96.22-3.65.19-5.03v-.75c0-.85-1.4-1.64-4.21-2.39-2.42-.63-5.25-1.06-8.51-1.33l-1.21,30.95h.63Z"/>
    <path class="cls-1" d="m467.3,35.07l10.78,1.89-1.28,10.78-11-.19-1.47-8.37,2.97-4.11Zm-.94,16.06l8.97.92,2.8,34.72-13.3-.19,1.52-35.45Z"/>
    <path class="cls-1" d="m508.82,35.68l12.14,26.62-.46-26.43,13.03.29-2.88,48.43-10.59,1.09-14.27-37.14-.1,37.24-7.93.19,1.04-37.72h-2.42l-.15-12.28,12.57-.29Z"/>
    <path class="cls-1" d="m565.78,34.83l-.63,6.43-22.1-.8v6.55h14.31l1.09,7.62-11.24.1.7,15.06,15.93.15.85,13.56-27.18,1.09-1.38-49.57,29.64-.19Z"/>
    <path class="cls-1" d="m598.88,35.51l.15,10.42-14.94-.8,1.84,34.75-11.1,1.6,1.84-32.59-8.63.65-.34-15.35,31.19,1.33Z"/>
    <path class="cls-1" d="m632.13,35.51l.15,10.42-14.94-.8,1.84,34.75-11.1,1.6,1.84-32.59-8.63.65-.34-15.35,31.19,1.33Z"/>
    <path class="cls-1" d="m644.44,42.11l-.41,29.06v.17c0,1.86.48,3.1,1.45,3.75.36.41.97.65,1.79.75.29.02,1.26.07,2.9.15h.34c1.86,0,3.19-.24,3.99-.75.8-.56,1.18-1.62,1.18-3.17l-.56-35.62,13.73-.63-.7,40.4c-.02,2.3-.65,3.84-1.84,4.64l-4.59,2.25c-2.59.75-5.51,1.14-8.78,1.14-1.55,0-3.05-.07-4.47-.24-1.43-.15-2.85-.39-4.23-.75-1.96-.53-3.51-1.02-4.67-1.45-1.16-.41-1.96-.77-2.37-1.09-1.62-1.14-2.47-3.26-2.59-6.43l-.94-34.31,10.76,2.13Z"/>
    <path class="cls-1" d="m682.3,35.68l12.14,26.62-.46-26.43,13.03.29-2.88,48.43-10.59,1.09-14.27-37.14-.1,37.24-7.93.19,1.04-37.72h-2.42l-.15-12.28,12.57-.29Z"/>
    <path class="cls-1" d="m710.91,58.43c.1-2.56.27-5.05.48-7.47.51-5.05,1.09-7.91,1.74-8.56.7-.7,2.73-1.28,6.09-1.79,1.64-.27,3.34-.44,5.05-.53s3.48-.15,5.34-.15c5.01,0,8.54.44,10.54,1.33,1.06.46,2.08,3.53,3.07,9.16.99,5.78,1.47,11.61,1.5,17.48,0,7.91-.99,13.2-2.97,15.89-.36.46-2.32.92-5.85,1.35-3.65.48-7.25.73-10.86.73h-.34c-6.55,0-10.54-.8-11.97-2.37-1.33-1.43-1.98-7.08-1.98-17,0-2.8.05-5.49.15-8.08Zm8.17,19.88c.7.89,3.24,1.33,7.62,1.33,3.02,0,4.76-.31,5.2-.94.36-.51.56-3.17.56-8,0-1.98-.02-3.89-.1-5.75s-.17-3.68-.31-5.44c-.29-3.97-.65-6.19-1.09-6.65-.97-1.09-2.97-1.62-6.04-1.62h-.15c-1.91,0-3.12.29-3.6.89-.51.56-1.04,3.68-1.6,9.31-.27,2.71-.46,5.17-.58,7.42-.15,2.25-.22,4.28-.22,6.09,0,1.98.1,3.1.31,3.36Z"/>
  </g>
</svg>